<svg width="82" height="81" viewBox="0 0 82 81" fill="none" xmlns="http://www.w3.org/2000/svg">
<path d="M73 43.4141C73 23.808 57.1061 7.91406 37.5 7.91406C17.8939 7.91406 2 23.808 2 43.4141C2 63.0202 17.8939 78.9141 37.5 78.9141V80.9141C16.7893 80.9141 0 64.1247 0 43.4141C0 22.7034 16.7893 5.91406 37.5 5.91406C58.2107 5.91406 75 22.7034 75 43.4141C75 64.1247 58.2107 80.9141 37.5 80.9141V78.9141C57.1061 78.9141 73 63.0202 73 43.4141Z" fill="white"/>
<path d="M64.2133 5.91404C64.2133 4.80924 65.1088 3.91408 66.2124 3.91356L66.2131 3.91425H75.2135C76.318 3.91434 77.2133 4.80952 77.2133 5.91404V14.9145C77.2128 16.018 76.3183 16.9142 75.2135 16.9142C74.1086 16.9142 73.2142 16.0181 73.2137 14.9145V10.7422L54.7074 29.2486L51.879 26.4201L70.3853 7.91382H66.2131C65.1095 7.91337 64.2134 7.0188 64.2133 5.91404Z" fill="white" stroke="#385399" stroke-width="2"/>
</svg>
